<?xml version="1.0" encoding="iso-8859-1"?>
<!-- Generator: Adobe Illustrator 16.0.4, SVG Export Plug-In . SVG Version: 6.00 Build 0)  -->
<!DOCTYPE svg PUBLIC "-//W3C//DTD SVG 1.1//EN" "http://www.w3.org/Graphics/SVG/1.1/DTD/svg11.dtd">
<svg version="1.1" id="Layer_1" xmlns="http://www.w3.org/2000/svg" xmlns:xlink="http://www.w3.org/1999/xlink" x="0px" y="0px"
	 width="67.199px" height="67.2px" viewBox="0 0 67.199 67.2" style="enable-background:new 0 0 67.199 67.2;" xml:space="preserve"
	>
<g>
	<g>
		<path d="M46.703,15.232V0h-44.8v67.201l22.4-20.16l22.4,20.16V51.969c10.08,0,18.593-8.288,18.593-18.593
			C65.295,23.074,56.783,15.232,46.703,15.232z M46.703,48.833c-8.288,0-15.232-6.721-15.232-15.232
			c0-8.511,6.72-15.232,15.232-15.232c8.514,0,15.23,6.722,15.23,15.232C61.934,42.113,54.991,48.833,46.703,48.833z"/>
		<polygon points="49.391,24.193 43.791,24.193 43.791,30.688 37.295,30.688 37.295,36.512 43.791,36.512 43.791,43.009 
			49.391,43.009 49.391,36.512 56.111,36.512 56.111,30.688 49.391,30.688 		"/>
	</g>
</g>
</svg>
