<?xml version="1.0" encoding="utf-8"?>
<!-- Generator: Adobe Illustrator 16.0.4, SVG Export Plug-In . SVG Version: 6.00 Build 0)  -->
<!DOCTYPE svg PUBLIC "-//W3C//DTD SVG 1.1//EN" "http://www.w3.org/Graphics/SVG/1.1/DTD/svg11.dtd">
<svg version="1.1" id="Capa_1" xmlns="http://www.w3.org/2000/svg" xmlns:xlink="http://www.w3.org/1999/xlink" x="0px" y="0px"
	 width="50px" height="50px" viewBox="0 0 50 50" enable-background="new 0 0 50 50" xml:space="preserve">
<path d="M29.805,22.1c-1.426,0-2.851,0-4.275,0c-0.194,0-0.296,0.03-0.36,0.063c0.006-0.094-0.018-0.256-0.118-0.525
	c-0.229-0.611-0.458-1.222-0.687-1.833c-0.15-0.4-0.729-0.56-0.963-0.125c-0.28,0.52-0.56,1.04-0.839,1.56
	c-0.461-1.432-0.922-2.864-1.384-4.296c-0.168-0.522-0.833-0.48-1.016,0c-0.491,1.285-0.983,2.57-1.474,3.855
	c-0.505-2.306-1.011-4.611-1.516-6.916c-0.113-0.517-0.888-0.492-1.016,0c-0.621,2.385-1.241,4.769-1.862,7.153
	c-0.35-0.719-0.7-1.438-1.05-2.157c-0.22-0.453-0.814-0.256-0.963,0.125c-0.354,0.911-0.708,1.821-1.062,2.731
	c-0.069,0.18-0.12,0.289-0.159,0.365c-0.517,0-1.035,0-1.552,0c-0.68,0-0.68,1.055,0,1.055c0.642,0,1.285,0,1.927,0
	c0.253,0,0.422-0.165,0.509-0.388c0.299-0.771,0.599-1.542,0.898-2.313c0.383,0.786,0.766,1.572,1.148,2.357
	c0.204,0.418,0.854,0.294,0.964-0.126c0.556-2.135,1.112-4.27,1.667-6.404c0.473,2.162,0.947,4.323,1.42,6.485
	c0.122,0.555,0.845,0.448,1.016,0c0.524-1.367,1.046-2.734,1.569-4.102c0.435,1.351,0.87,2.702,1.305,4.053
	c0.134,0.416,0.737,0.546,0.963,0.125c0.292-0.543,0.584-1.086,0.877-1.628c0.194,0.517,0.388,1.035,0.582,1.552
	c0.083,0.223,0.257,0.388,0.508,0.388c1.648,0,3.296,0,4.946,0C30.484,23.155,30.484,22.1,29.805,22.1z M35.648,19.375
	c0-8.783-7.146-15.928-15.927-15.928c-8.782,0-15.929,7.145-15.929,15.928s7.146,15.928,15.928,15.928
	C28.502,35.303,35.648,28.158,35.648,19.375z M19.721,31.305c-6.578,0-11.929-5.352-11.929-11.93S13.143,7.446,19.721,7.446
	c6.578,0,11.929,5.351,11.929,11.929S26.298,31.305,19.721,31.305z M30.449,34.316l3.521-3.522l12.236,12.237l-3.521,3.521
	L30.449,34.316z"/>
</svg>
