<?xml version="1.0" encoding="utf-8"?>
<!-- Generator: Adobe Illustrator 18.0.0, SVG Export Plug-In . SVG Version: 6.00 Build 0)  -->
<!DOCTYPE svg PUBLIC "-//W3C//DTD SVG 1.1//EN" "http://www.w3.org/Graphics/SVG/1.1/DTD/svg11.dtd">
<svg version="1.1" id="Capa_1" xmlns:sketch="http://www.bohemiancoding.com/sketch/ns"
	 xmlns="http://www.w3.org/2000/svg" xmlns:xlink="http://www.w3.org/1999/xlink" x="0px" y="0px" viewBox="0 0 32 32"
	 enable-background="new 0 0 32 32" xml:space="preserve">
<title>icon 19 bookmark add</title>
<desc>Created with Sketch.</desc>
<g>
	<path d="M13,13.5C13,9.9,15.9,7,19.5,7c0.2,0,0.3,0,0.5,0v0c0-1.7-1.3-3-3-3h-6C9.3,4,8,5.3,8,7v21l6-6l6,6v-8c-0.2,0-0.3,0-0.5,0
		C15.9,20,13,17.1,13,13.5z"/>
	<path d="M19.5,8c-3,0-5.5,2.5-5.5,5.5s2.5,5.5,5.5,5.5c3,0,5.5-2.5,5.5-5.5S22.5,8,19.5,8z M23,14h-3v3h-1v-3h-3v-1h3v-3h1v3h3V14z
		"/>
</g>
</svg>
