<?xml version="1.0" encoding="utf-8"?>
<!-- Generator: Adobe Illustrator 17.0.0, SVG Export Plug-In . SVG Version: 6.00 Build 0)  -->
<!DOCTYPE svg PUBLIC "-//W3C//DTD SVG 1.1//EN" "http://www.w3.org/Graphics/SVG/1.1/DTD/svg11.dtd">
<svg version="1.1" id="Capa_1" xmlns="http://www.w3.org/2000/svg" xmlns:xlink="http://www.w3.org/1999/xlink" x="0px" y="0px"
	 width="52px" height="52px" viewBox="0 0 52 52" enable-background="new 0 0 52 52" xml:space="preserve">
<path d="M21.064,8.143c-3.859,0.85-7.268,2.737-8.391,5.8c-0.38,1.037,0.502,2.081,1.599,2.212
	c8.31,0.994,16.746,0.992,25.316-0.008c1.097-0.128,1.806-1.14,1.306-2.125c-1.786-3.515-5.92-5.459-9.139-6.191
	c-1.077-0.245-1.248-1.406-2.19-1.984c-1.482-0.91-5.354-0.857-6.601,0.205C22.123,6.77,22.143,7.905,21.064,8.143z"/>
<path d="M15.027,17.588c-1.089-0.185-2.344-0.276-2.569,0.076c-0.116,0.182-0.177,0.419-0.169,0.725
	c0.807,7.359,1.559,17.625,2.101,24.61c0.044,0.574,0.235,1.669,1.003,2.407c0.796,0.765,2.69,0.913,3.786,1.051
	c5.776,0.723,13.726,0.401,18.132-0.457c1.831-0.356,2.427-2.148,2.467-2.913c0.141-2.735,1.121-14.322,2.151-22.543
	c0.137-1.096,0.34-2.511-0.082-2.793c-0.203-0.136-0.498-0.178-0.89-0.124C31.76,18.912,24.385,19.177,15.027,17.588z M22,40.298
	c0,0.71-0.988,1.286-2,1.286s-2-0.576-2-1.286V22.286C18,21.576,18.988,21,20,21s2,0.576,2,1.286V40.298z M29,40.298
	c0,0.71-0.988,1.286-2,1.286s-2-0.576-2-1.286V22.286C25,21.576,25.988,21,27,21s2,0.576,2,1.286V40.298z M36,40.298
	c0,0.71-0.988,1.286-2,1.286s-2-0.576-2-1.286V22.286C32,21.576,32.988,21,34,21s2,0.576,2,1.286V40.298z"/>
</svg>
