<?xml version="1.0" encoding="utf-8"?>
<!-- Generator: Adobe Illustrator 17.1.0, SVG Export Plug-In . SVG Version: 6.00 Build 0)  -->
<!DOCTYPE svg PUBLIC "-//W3C//DTD SVG 1.1//EN" "http://www.w3.org/Graphics/SVG/1.1/DTD/svg11.dtd">
<svg version="1.1" id="Layer_1" xmlns="http://www.w3.org/2000/svg" xmlns:xlink="http://www.w3.org/1999/xlink" x="0px" y="0px"
	 width="1000px" height="1000px" viewBox="0 0 1000 1000" enable-background="new 0 0 1000 1000" xml:space="preserve">
<g>
	<path d="M186.5,353.6c4.4-5.6,8.9-11.1,13.6-16.4c6-6.9,12.3-13.7,18.9-20.2c23.7-23.7,49.9-44,78.4-60.9v-6.6
		c0-15.4-12.5-27.8-27.8-27.8h-30.9c-5.5,0-10.6,2.6-13.7,7.1l-45.6,64.5l-11.1-23.4l17.7-37.2c2.4-5.1-1.3-11-6.9-11h-35.4
		c-5.6,0-9.4,5.9-6.9,11l17.7,37.2l-10.9,23L99.1,229c-3.1-4.5-8.3-7.3-13.8-7.3H52.8c-15.4,0-27.8,12.5-27.8,27.8v184.9h112.7
		C150.8,405.5,167.1,378.5,186.5,353.6z"/>
	<path d="M71.5,114.3c0,49.4,40.2,89.6,89.6,89.6s89.6-40.2,89.6-89.6s-40.2-89.6-89.6-89.6S71.5,64.9,71.5,114.3z"/>
	<path d="M916.3,221.7c-5.5,0-10.6,2.6-13.7,7.1l-45.6,64.5l-11.1-23.4l17.7-37.2c2.4-5.1-1.3-11-6.9-11h-35.4
		c-5.6,0-9.4,5.9-6.9,11l17.7,37.2l-10.9,23L776.8,229c-3.1-4.5-8.3-7.3-13.8-7.3h-32.5c-15.4,0-27.8,12.5-27.8,27.8v7.1
		c28.1,16.7,54,36.9,77.4,60.3c6.8,6.8,13.3,13.8,19.5,20.9c4.4,5.1,8.8,10.4,12.9,15.7c19.4,24.9,35.8,51.9,48.8,80.8H975V249.5
		c0-15.4-12.5-27.8-27.8-27.8L916.3,221.7L916.3,221.7z"/>
	<path d="M749.2,114.3c0,49.4,40.2,89.6,89.6,89.6s89.6-40.2,89.6-89.6s-40.2-89.6-89.6-89.6S749.2,64.9,749.2,114.3z"/>
	<path d="M960.3,899.9l-122.9-94.2c-16.1,26.2-35.3,50.4-57.3,72.4c-1.8,1.8-3.7,3.6-5.6,5.4l124.9,95.7c9.1,7,19.8,10.3,30.4,10.3
		c15,0,29.9-6.7,39.7-19.6C986.3,948.1,982.2,916.7,960.3,899.9z"/>
	<path d="M636.1,595.7c0-15.4-12.5-27.8-27.8-27.8h-30.9c-5.5,0-10.6,2.6-13.7,7.1l-45.6,64.5l-11.1-23.4l17.7-37.2
		c2.4-5.1-1.3-11-6.9-11h-35.4c-5.6,0-9.4,5.9-6.9,11l17.7,37.2l-10.9,23L438,575.2c-3.1-4.5-8.3-7.3-13.8-7.3h-32.5
		c-15.4,0-27.8,12.5-27.8,27.8v184.9h272.3V595.7z"/>
	<path d="M500,550.2c49.4,0,89.6-40.2,89.6-89.6s-40.2-89.6-89.6-89.6s-89.6,40.2-89.6,89.6S450.6,550.2,500,550.2z"/>
	<path d="M354.8,940.1c45.9,19.4,94.6,29.2,144.7,29.2c50.2,0,98.9-9.8,144.7-29.2c40.9-17.3,77.9-41.5,110.2-71.9
		c2.7-2.5,5.4-5.1,8-7.7c21.2-21.2,39.6-44.7,55-70C826.7,775,835,759,842,742.3c19.4-45.9,29.2-94.6,29.2-144.7
		s-9.8-98.9-29.2-144.7c-2.6-6.2-5.4-12.4-8.4-18.4c-18-36.9-41.9-70.4-71.3-99.8c-18.3-18.3-38.3-34.5-59.7-48.5
		c-18.5-12.1-38-22.5-58.5-31.2c-45.9-19.4-94.6-29.2-144.7-29.2c-50.2,0-98.9,9.8-144.7,29.2c-20.1,8.5-39.3,18.7-57.5,30.5
		c-21.8,14.1-42.1,30.5-60.7,49.1c-29.3,29.3-53.2,62.8-71.3,99.8c-2.9,6-5.8,12.2-8.4,18.4c-19.4,45.9-29.2,94.6-29.2,144.7
		s9.8,98.9,29.2,144.7c18.7,44.3,45.5,84,79.7,118.2C270.7,894.5,310.5,921.3,354.8,940.1z M291.2,434.4c2-2.5,4-5,6.1-7.4
		c4.8-5.7,9.8-11.2,15.2-16.5c50-50,116.4-77.5,187.1-77.5s137.1,27.5,187,77.5c5.7,5.7,11.1,11.6,16.2,17.7
		c1.7,2.1,3.4,4.1,5.1,6.3c36.5,46.4,56.2,103.2,56.2,163.1c0,70.7-27.5,137.1-77.5,187.1c-50,50-116.4,77.5-187,77.5
		s-137.1-27.5-187-77.5c-50-50-77.5-116.4-77.5-187.1C235,537.6,254.8,480.8,291.2,434.4z"/>
</g>
</svg>
